HIERARCHY
ROOT joint_Root
{
	OFFSET 0.0 0.0 0.0
	CHANNELS 6 Xposition Yposition Zposition Zrotation Xrotation Yrotation 
	JOINT Hips
	{
		OFFSET -0.726466 93.3139 -2.00062
		CHANNELS 6 Xposition Yposition Zposition Zrotation Xrotation Yrotation 
		JOINT Spine
		{
			OFFSET 15.7357 0.0 0.0
			CHANNELS 6 Xposition Yposition Zposition Zrotation Xrotation Yrotation 
			JOINT Chest
			{
				OFFSET 8.98455 -0.406207 0.0
				CHANNELS 6 Xposition Yposition Zposition Zrotation Xrotation Yrotation 
				JOINT Neck
				{
					OFFSET 16.3773 0.0 0.0
					CHANNELS 6 Xposition Yposition Zposition Zrotation Xrotation Yrotation 
					JOINT Head
					{
						OFFSET 6.45672 0.0 0.0
						CHANNELS 6 Xposition Yposition Zposition Zrotation Xrotation Yrotation 
						End Site
						{
							OFFSET 0.0 0.0 0.0
						}
					}
				}
				JOINT Shoulder_L
				{
					OFFSET 12.9942 -0.242716 4.98039
					CHANNELS 6 Xposition Yposition Zposition Zrotation Xrotation Yrotation 
					JOINT UpperArm_L
					{
						OFFSET 5.34809 0.0 0.0
						CHANNELS 6 Xposition Yposition Zposition Zrotation Xrotation Yrotation 
						JOINT LowerArm_L
						{
							OFFSET 24.3286 1.87007e-05 0.0
							CHANNELS 6 Xposition Yposition Zposition Zrotation Xrotation Yrotation 
							JOINT Hand_L
							{
								OFFSET 22.2916 0.0 0.0
								CHANNELS 6 Xposition Yposition Zposition Zrotation Xrotation Yrotation 
								End Site
								{
									OFFSET 0.0 0.0 0.0
								}
							}
						}
					}
				}
				JOINT Shoulder_R
				{
					OFFSET 12.9945 -0.242716 -4.98039
					CHANNELS 6 Xposition Yposition Zposition Zrotation Xrotation Yrotation 
					JOINT UpperArm_R
					{
						OFFSET -5.34813 0.0 0.0
						CHANNELS 6 Xposition Yposition Zposition Zrotation Xrotation Yrotation 
						JOINT LowerArm_R
						{
							OFFSET -24.3289 0.000322201 0.0
							CHANNELS 6 Xposition Yposition Zposition Zrotation Xrotation Yrotation 
							JOINT Hand_R
							{
								OFFSET -22.2915 -0.000108084 0.0
								CHANNELS 6 Xposition Yposition Zposition Zrotation Xrotation Yrotation 
								End Site
								{
									OFFSET 0.0 0.0 0.0
								}
							}
						}
					}
				}
			}
		}
		JOINT UpperLeg_L
		{
			OFFSET -2.19248 -6.46944 0.0
			CHANNELS 6 Xposition Yposition Zposition Zrotation Xrotation Yrotation 
			JOINT LowerLeg_L
			{
				OFFSET 39.0811 0.0 -1.23785e-05
				CHANNELS 6 Xposition Yposition Zposition Zrotation Xrotation Yrotation 
				JOINT Foot_L
				{
					OFFSET 40.9854 0.0 -1.26872e-05
					CHANNELS 6 Xposition Yposition Zposition Zrotation Xrotation Yrotation 
					JOINT Toes_L
					{
						OFFSET 11.7543 0.0 0.0
						CHANNELS 6 Xposition Yposition Zposition Zrotation Xrotation Yrotation 
						End Site
						{
							OFFSET 0.0 0.0 0.0
						}
					}
				}
			}
		}
		JOINT UpperLeg_R
		{
			OFFSET -2.19251 6.46944 0.0
			CHANNELS 6 Xposition Yposition Zposition Zrotation Xrotation Yrotation 
			JOINT LowerLeg_R
			{
				OFFSET -39.0811 -0.00228153 -0.0401928
				CHANNELS 6 Xposition Yposition Zposition Zrotation Xrotation Yrotation 
				JOINT Foot_R
				{
					OFFSET -40.9854 0.0 0.0
					CHANNELS 6 Xposition Yposition Zposition Zrotation Xrotation Yrotation 
					JOINT Toes_R
					{
						OFFSET -11.7543 0.0 0.0
						CHANNELS 6 Xposition Yposition Zposition Zrotation Xrotation Yrotation 
						End Site
						{
							OFFSET 0.0 0.0 0.0
						}
					}
				}
			}
		}
	}
}
MOTION
Frames:	4
Frame Time:	0.0333333
0.000000 0.000000 0.000000 0.000000 0.000000 -0.000000 109.515000 91.593400 -135.923000 86.053700 3.340760 -1.662660 15.735700 0.000005 -0.000001 73.291600 83.555900 -72.775800 8.984550 -0.406207 -0.000000 4.602740 -3.713020 1.179930 16.377300 -0.000001 -0.000001 0.388675 -3.028480 1.493070 6.456720 -0.000001 -0.000000 1.665250 -0.309621 -3.547270 12.994200 -0.242716 4.980390 -89.484500 -1.883180 -74.687700 5.348090 -0.000007 -0.000001 -56.570200 27.403300 -43.480700 24.328600 0.000019 0.000005 0.966715 0.881009 -47.658400 22.291600 -0.000001 0.000005 13.115400 5.577260 -10.065800 12.994500 -0.242716 -4.980390 87.905400 6.487540 -72.063500 -5.348130 -0.000001 -0.000004 -75.395100 22.037300 3.588970 -24.328900 0.000322 -0.000009 1.330080 19.017700 -4.079680 -22.291500 -0.000108 -0.000004 7.961680 5.259960 1.169860 -2.192480 -6.469440 -0.000000 -174.196000 -15.964900 7.196460 39.081100 -0.000007 -0.000012 -0.015671 0.069461 12.712800 40.985400 -0.000006 -0.000013 2.220850 12.954300 -71.069100 11.754300 -0.000000 0.000003 -0.002587 -0.035842 -18.034300 -2.192510 6.469440 -0.000001 -171.902000 18.341800 153.674000 -39.081100 -0.002282 -0.040193 0.030139 -0.097475 15.378300 -40.985400 0.000008 0.000006 -7.997460 0.184531 -48.715000 -11.754300 -0.000006 -0.000006 -0.020986 -0.172690 -23.630500
0.000000 0.000000 0.000000 0.000000 0.000000 -0.000000 109.430000 90.879900 -132.986000 86.272100 3.934490 -1.872820 15.735700 0.000005 -0.000001 72.113800 83.724900 -71.481500 8.984550 -0.406207 -0.000000 4.207110 -3.868120 1.405710 16.377300 -0.000001 -0.000001 0.430479 -3.009750 1.417320 6.456720 -0.000001 -0.000000 1.616430 -0.368632 -3.714620 12.994200 -0.242716 4.980390 -89.470000 -1.938620 -74.705300 5.348090 -0.000007 -0.000001 -55.394000 26.712900 -46.326200 24.328600 0.000019 0.000005 1.031160 0.950865 -47.323700 22.291600 -0.000001 0.000005 13.127800 5.577100 -10.057300 12.994500 -0.242716 -4.980390 88.001000 6.273570 -72.286500 -5.348130 -0.000001 -0.000004 -75.801000 21.981600 4.737450 -24.328900 0.000322 -0.000009 0.953440 20.199600 -2.762460 -22.291500 -0.000108 -0.000004 7.007360 5.240510 1.682460 -2.192480 -6.469440 -0.000000 -173.724000 -15.407200 8.536300 39.081100 -0.000007 -0.000012 -0.022728 0.093553 13.654800 40.985400 -0.000006 -0.000013 2.653440 13.061600 -72.285700 11.754300 -0.000000 0.000003 -0.003647 -0.047720 -18.517700 -2.192510 6.469440 -0.000001 -169.591000 20.123000 153.656000 -39.081100 -0.002282 -0.040193 0.023336 -0.146169 7.788660 -40.985400 0.000008 0.000006 -10.274600 1.036920 -45.286200 -11.754300 -0.000006 -0.000006 -0.020614 -0.170668 -23.547100
0.000000 0.000000 0.000000 0.000000 0.000000 -0.000000 109.213000 90.105800 -129.474000 86.684800 4.968150 -1.795080 15.735700 0.000005 -0.000001 69.275600 83.810100 -68.548500 8.984550 -0.406207 -0.000000 3.850510 -4.399680 1.601070 16.377300 -0.000001 -0.000001 0.487013 -2.965170 1.269340 6.456720 -0.000001 -0.000000 1.694880 -0.290619 -3.703240 12.994200 -0.242716 4.980390 -89.449300 -2.011230 -74.683200 5.348090 -0.000007 -0.000001 -55.209800 26.435800 -47.260600 24.328600 0.000019 0.000005 1.236760 1.160230 -46.834500 22.291600 -0.000001 0.000005 12.859500 5.574050 -9.897510 12.994500 -0.242716 -4.980390 87.928400 6.454770 -72.164300 -5.348130 -0.000001 -0.000004 -75.483700 22.404400 5.413350 -24.328900 0.000322 -0.000009 0.920837 20.620600 -2.615910 -22.291500 -0.000108 -0.000004 6.109320 5.234730 1.832720 -2.192480 -6.469440 -0.000000 -173.137000 -14.392800 9.604060 39.081100 -0.000007 -0.000012 -0.028604 0.098383 16.211200 40.985400 -0.000006 -0.000013 3.238870 13.353500 -73.510700 11.754300 -0.000000 0.000003 -0.006952 -0.079261 -19.803500 -2.192510 6.469440 -0.000001 -168.351000 20.688400 152.585000 -39.081100 -0.002282 -0.040193 0.015891 -0.095568 7.480300 -40.985400 0.000008 0.000006 -9.124400 -1.053810 -47.993900 -11.754300 -0.000006 -0.000006 -0.020091 -0.167793 -23.428600
0.000000 0.000000 0.000000 0.000000 0.000000 -0.000000 108.812000 89.487700 -125.415000 86.537300 6.146270 -1.691920 15.735700 0.000005 -0.000001 66.459600 83.921400 -65.420000 8.984550 -0.406207 -0.000000 3.435340 -4.889080 2.224720 16.377300 -0.000001 -0.000001 0.542983 -3.091320 1.111650 6.456720 -0.000001 -0.000000 1.718010 -0.179366 -3.786170 12.994200 -0.242716 4.980390 -89.554600 -1.636550 -74.772300 5.348090 -0.000007 -0.000001 -55.106700 26.802500 -46.538500 24.328600 0.000019 0.000005 1.217900 1.166150 -46.249700 22.291600 -0.000001 0.000005 12.840800 5.574620 -9.927640 12.994500 -0.242716 -4.980390 87.629000 7.191200 -71.697800 -5.348130 -0.000001 -0.000004 -74.367900 22.720800 5.477300 -24.328900 0.000322 -0.000009 1.169830 20.486000 -3.342230 -22.291500 -0.000108 -0.000004 6.237590 5.243270 1.609920 -2.192480 -6.469440 -0.000000 -171.765000 -12.870400 10.232200 39.081100 -0.000007 -0.000012 -0.027202 0.075655 19.776200 40.985400 -0.000006 -0.000013 3.118270 14.002500 -73.483200 11.754300 -0.000000 0.000003 -0.017183 -0.151164 -22.748100 -2.192510 6.469440 -0.000001 -167.138000 18.910900 151.154000 -39.081100 -0.002282 -0.040193 -0.007318 0.049759 12.084500 -40.985400 0.000008 0.000006 3.617270 -4.452370 -48.415000 -11.754300 -0.000006 -0.000006 -0.021691 -0.176479 -23.786700
